<?xml version="1.0" encoding="UTF-8"?> <svg xmlns="http://www.w3.org/2000/svg" width="79" height="16" viewBox="0 0 79 16" fill="none"> <path fill-rule="evenodd" clip-rule="evenodd" d="M11.1436 8.88568C11.515 7.16459 12.9191 3.76699 15.5639 3.94529C18.827 4.16527 18.9779 6.59267 19.0884 8.37011C19.0899 8.3935 19.0913 8.41677 19.0928 8.43993C19.1819 9.86633 19.1299 13.2936 19.0928 14.7919H16.4554V7.99418C16.4183 7.21412 16.0886 6.79396 15.5639 6.76837C14.1451 6.69915 13.0164 12.0405 12.5383 14.303C12.5032 14.469 12.4716 14.6185 12.4437 14.748H11.1067C11.1066 14.7502 11.1066 14.7525 11.1065 14.7547H8.61774V7.99418C8.5806 7.21412 8.25094 6.79396 7.72624 6.76837C6.32992 6.70025 5.27707 11.6224 4.73945 14.1357C4.69068 14.3637 4.64615 14.5719 4.60599 14.7547H3.49162L3.49161 14.7545H1.11437L0 4.13081H3.04596L3.47605 8.231C4.01791 6.42811 5.38664 3.78756 7.72624 3.94529C10.8617 4.15667 10.99 6.40622 11.09 8.15881C11.0954 8.25412 11.1008 8.34796 11.1065 8.43993C11.1184 8.63079 11.1278 8.8568 11.1351 9.10874L11.1436 8.88568Z" fill="#FDFDFD"></path> <path d="M31.3565 12.5314H31.7859V15C31.5712 15.0358 31.285 15.0716 30.7483 15.0716C29.4246 15.0716 28.709 14.5707 28.4944 13.4616C27.7431 14.5349 26.3477 15.1789 24.7736 15.1789C22.6627 15.1789 21.2674 13.9267 21.2674 12.0663C21.2674 9.27566 23.8791 8.77478 25.8826 8.52434C27.0991 8.38123 28.065 8.20234 28.065 7.55835C28.065 6.87859 27.3495 6.41349 26.1331 6.41349C25.024 6.41349 24.0222 6.84281 23.1994 7.66569L21.4821 5.91261C22.77 4.69618 24.38 4.08797 26.312 4.08797C29.1026 4.08797 30.7483 5.4475 30.7483 7.70146V11.9232C30.7483 12.3167 30.963 12.5314 31.3565 12.5314ZM25.4175 12.9249C26.8486 12.9249 27.9935 11.9947 27.9935 10.8141V9.88387C27.5642 10.1343 26.956 10.2416 26.1689 10.3847C25.0598 10.5636 24.0222 10.7425 24.0222 11.7801C24.0222 12.4956 24.5231 12.9249 25.4175 12.9249ZM35.8287 10.5636C36.1149 11.9947 37.1167 12.8176 38.6551 12.8176C39.9431 12.8176 40.909 12.3525 41.5888 11.6012L43.3419 13.3185C42.2686 14.4633 40.6944 15.1789 38.6193 15.1789C34.8985 15.1789 33.0023 12.8176 33.0023 9.63343C33.0023 6.34193 35.1489 4.08797 38.4404 4.08797C41.6961 4.08797 43.7712 6.27038 43.7712 9.63343C43.7712 9.84809 43.7712 10.0628 43.6639 10.5636H35.8287ZM38.4404 6.37771C37.1167 6.37771 36.1865 7.16481 35.8645 8.48856H40.909C40.6228 7.12903 39.7642 6.37771 38.4404 6.37771ZM49.6029 15.1789C47.6709 15.1789 45.8821 14.5707 44.7372 13.5689L46.2041 11.5296C47.0269 12.2809 48.2434 12.7818 49.7102 12.7818C50.6762 12.7818 51.4991 12.5314 51.4991 11.9589C51.4991 11.4938 51.1055 11.2434 49.2809 10.8141C46.4545 10.1343 45.2381 9.09677 45.2381 7.37947C45.2381 5.37595 46.9912 4.08797 49.746 4.08797C51.356 4.08797 52.7513 4.55307 54.075 5.41173L52.6082 7.4868C51.6422 6.77126 50.712 6.44926 49.4956 6.44926C48.5654 6.44926 47.9571 6.73548 47.9571 7.27214C47.9571 7.77302 48.3865 8.02346 49.9249 8.38123C53.0733 9.13255 54.2539 10.0628 54.2539 11.8516C54.2539 13.9625 52.5724 15.1789 49.6029 15.1789ZM62.912 6.62815H59.8351V11.315C59.8351 12.2452 60.336 12.5672 61.1947 12.5672C61.8744 12.5672 62.3395 12.5314 62.912 12.3883V14.9284C62.1249 15.1431 61.3378 15.2147 60.5507 15.2147C58.2967 15.2147 56.973 14.1413 56.973 11.9947V6.62815H54.8263V4.26686H56.973L57.2592 1.40469H59.8351V4.26686H62.912V6.62815ZM71.3554 4.12375C71.6774 4.12375 71.9994 4.15953 72.3214 4.23108L72.2856 6.87859C71.6774 6.80703 71.0692 6.77126 70.5683 6.77126C68.9941 6.77126 67.9566 7.52258 67.9566 9.16833V15H65.0944V4.26686H67.6703L67.8135 5.87683C68.529 4.80351 69.817 4.12375 71.3554 4.12375ZM74.2533 2.90733V0.474479H77.3302V2.90733H74.2533ZM74.3607 15V4.26686H77.2228V15H74.3607Z" fill="#FDFDFD"></path> </svg> 