<?xml version="1.0" encoding="UTF-8"?> <svg xmlns="http://www.w3.org/2000/svg" width="24" height="24" viewBox="0 0 24 24" fill="none"> <path d="M9.66862 11.0802L3.73828 5.18198C3.94702 5.06423 4.18787 5 4.44478 5H19.3456C19.6025 5 19.8433 5.06423 20.0521 5.18198L14.1217 11.0802L13.4152 11.7814L12.2163 12.9749C12.1039 13.0873 11.9648 13.1087 11.8952 13.1087C11.8256 13.1087 11.6918 13.0927 11.574 12.9749L9.66862 11.0802Z" fill="#13131A"></path> <path d="M8.9678 11.7817L3.14451 17.5676C3.05352 17.3802 3 17.1661 3 16.9413V6.44015C3 6.26352 3.03211 6.0976 3.09099 5.94238L8.9678 11.7817Z" fill="#13131A"></path> <path d="M14.1217 12.4824L19.9289 18.2575C19.7523 18.3378 19.5542 18.3806 19.3455 18.3806H4.44473C4.23599 18.3806 4.03795 18.3378 3.86133 18.2575L9.66856 12.4824L10.8728 13.676C11.1565 13.9543 11.5258 14.0988 11.8951 14.0988C12.2644 14.0988 12.6337 13.9597 12.9174 13.676L14.1217 12.4824Z" fill="#13131A"></path> <path d="M20.7906 6.43964V16.9408C20.7906 17.1656 20.7371 17.3797 20.6461 17.5671L14.8281 11.7812L20.7049 5.93652C20.7585 6.09709 20.7906 6.26301 20.7906 6.43964Z" fill="#13131A"></path> </svg> 