<?xml version="1.0" encoding="UTF-8"?> <svg xmlns="http://www.w3.org/2000/svg" width="24" height="24" viewBox="0 0 24 24" fill="none"> <path d="M2.896 4.204C5.168 1.532 8.486 0 12 0C18.618 0 24 5.382 24 12C24 18.618 18.618 24 12 24C8.488 24 5.17 22.468 2.914 19.816C1.034 17.664 -1.07288e-06 14.888 -1.07288e-06 12C-1.07288e-06 9.11 1.036 6.334 2.896 4.204Z" fill="url(#paint0_diamond_165_2196)"></path> <path d="M11.9999 15.021C10.3246 15.021 8.96654 13.6685 8.96654 12C8.96654 10.3315 10.3246 8.97894 11.9999 8.97894C13.6751 8.97894 15.0332 10.3315 15.0332 12C15.0332 13.6685 13.6751 15.021 11.9999 15.021Z" fill="#13131A"></path> <path d="M12.0003 8.54736C11.8853 8.54736 11.7751 8.50189 11.6938 8.42095C11.6126 8.34002 11.5669 8.23024 11.5669 8.11578V5.95789C11.5669 5.84342 11.6126 5.73365 11.6938 5.65271C11.7751 5.57178 11.8853 5.52631 12.0003 5.52631C12.1152 5.52631 12.2254 5.57178 12.3067 5.65271C12.3879 5.73365 12.4336 5.84342 12.4336 5.95789V8.11578C12.4336 8.23024 12.3879 8.34002 12.3067 8.42095C12.2254 8.50189 12.1152 8.54736 12.0003 8.54736Z" fill="#13131A"></path> <path d="M15.0632 9.55725C15.0243 9.60242 14.9765 9.63912 14.9228 9.66502C14.869 9.69093 14.8104 9.70548 14.7508 9.70778C14.6911 9.71008 14.6316 9.70006 14.576 9.67836C14.5204 9.65667 14.4699 9.62375 14.4276 9.5817C14.3854 9.53964 14.3523 9.48934 14.3306 9.43395C14.3088 9.37857 14.2987 9.3193 14.301 9.25987C14.3033 9.20043 14.3179 9.14211 14.344 9.08856C14.37 9.03502 14.4068 8.98741 14.4522 8.94872L15.9818 7.42093C16.0634 7.33966 16.1741 7.29401 16.2895 7.29401C16.4049 7.29401 16.5156 7.33966 16.5972 7.42093C16.6788 7.5022 16.7246 7.61242 16.7246 7.72735C16.7246 7.84228 16.6788 7.9525 16.5972 8.03377L15.0632 9.55725Z" fill="#13131A"></path> <path d="M15.4667 12C15.4667 11.8855 15.5123 11.7757 15.5936 11.6948C15.6749 11.6139 15.7851 11.5684 15.9 11.5684H18.0667C18.1816 11.5684 18.2918 11.6139 18.3731 11.6948C18.4543 11.7757 18.5 11.8855 18.5 12C18.5 12.1144 18.4543 12.2242 18.3731 12.3052C18.2918 12.3861 18.1816 12.4316 18.0667 12.4316H15.9C15.7851 12.4316 15.6749 12.3861 15.5936 12.3052C15.5123 12.2242 15.4667 12.1144 15.4667 12Z" fill="#13131A"></path> <path d="M15.0626 14.4427L16.5966 15.9662C16.6419 16.0049 16.6788 16.0525 16.7048 16.1061C16.7308 16.1596 16.7454 16.2179 16.7477 16.2774C16.75 16.3368 16.74 16.3961 16.7182 16.4514C16.6964 16.5068 16.6634 16.5571 16.6211 16.5992C16.5789 16.6412 16.5284 16.6742 16.4728 16.6958C16.4172 16.7175 16.3577 16.7276 16.298 16.7253C16.2383 16.723 16.1798 16.7084 16.126 16.6825C16.0722 16.6566 16.0244 16.6199 15.9856 16.5747L14.4516 15.0469C14.3806 14.9644 14.3435 14.8582 14.3477 14.7496C14.3519 14.6409 14.3971 14.5379 14.4743 14.461C14.5515 14.3842 14.6549 14.3392 14.764 14.335C14.873 14.3308 14.9797 14.3677 15.0626 14.4384V14.4427Z" fill="#13131A"></path> <path d="M12.0003 15.4526C12.1152 15.4526 12.2254 15.4981 12.3067 15.579C12.3879 15.66 12.4336 15.7697 12.4336 15.8842V18.0421C12.4336 18.1566 12.3879 18.2663 12.3067 18.3473C12.2254 18.4282 12.1152 18.4737 12.0003 18.4737C11.8853 18.4737 11.7751 18.4282 11.6938 18.3473C11.6126 18.2663 11.5669 18.1566 11.5669 18.0421V15.8842C11.5669 15.7697 11.6126 15.66 11.6938 15.579C11.7751 15.4981 11.8853 15.4526 12.0003 15.4526Z" fill="#13131A"></path> <path d="M8.93519 14.4427C9.01809 14.372 9.12472 14.3351 9.23378 14.3393C9.34284 14.3435 9.4463 14.3885 9.52347 14.4654C9.60064 14.5422 9.64585 14.6453 9.65007 14.7539C9.65428 14.8625 9.61718 14.9687 9.54619 15.0513L8.01219 16.5791C7.92929 16.6498 7.82266 16.6867 7.7136 16.6825C7.60454 16.6783 7.50109 16.6333 7.42391 16.5564C7.34674 16.4796 7.30153 16.3765 7.29732 16.2679C7.29311 16.1593 7.3302 16.0531 7.40119 15.9705L8.93519 14.4427Z" fill="#13131A"></path> <path d="M5.9332 11.5684H8.09987C8.2148 11.5684 8.32502 11.6139 8.40628 11.6948C8.48755 11.7757 8.5332 11.8855 8.5332 12C8.5332 12.1144 8.48755 12.2242 8.40628 12.3052C8.32502 12.3861 8.2148 12.4316 8.09987 12.4316H5.9332C5.81828 12.4316 5.70806 12.3861 5.62679 12.3052C5.54552 12.2242 5.49987 12.1144 5.49987 12C5.49987 11.8855 5.54552 11.7757 5.62679 11.6948C5.70806 11.6139 5.81828 11.5684 5.9332 11.5684Z" fill="#13131A"></path> <path d="M9.24426 9.68672C9.18723 9.68705 9.1307 9.67616 9.0779 9.65469C9.02511 9.63321 8.97709 9.60156 8.93659 9.56156L7.40259 8.03377C7.3316 7.95121 7.29451 7.84501 7.29872 7.73639C7.30293 7.62778 7.34814 7.52474 7.42532 7.44788C7.50249 7.37102 7.60595 7.32599 7.715 7.32179C7.82406 7.3176 7.9307 7.35454 8.01359 7.42525L9.54759 8.94872C9.60871 9.00909 9.65039 9.08621 9.66732 9.17026C9.68425 9.25431 9.67566 9.34147 9.64265 9.42065C9.60965 9.49982 9.55372 9.5674 9.48199 9.61479C9.41027 9.66218 9.326 9.68722 9.23993 9.68672H9.24426Z" fill="#13131A"></path> <defs> <radialGradient id="paint0_diamond_165_2196" cx="0" cy="0" r="1" gradientUnits="userSpaceOnUse" gradientTransform="translate(4.3 -0.632193) rotate(32.0239) scale(34.9128 92.5348)"> <stop stop-color="#F3E7E9"></stop> <stop offset="0.0001" stop-color="#F3E7E9"></stop> <stop offset="0.921875" stop-color="#E3EEFF"></stop> </radialGradient> </defs> </svg> 