<?xml version="1.0" encoding="UTF-8"?> <svg xmlns="http://www.w3.org/2000/svg" width="24" height="24" viewBox="0 0 24 24" fill="none"> <path fill-rule="evenodd" clip-rule="evenodd" d="M5.5 4C4.67157 4 4 4.67157 4 5.5V11.5H7.52746C7.77619 9.25002 9.68372 7.5 12 7.5C14.3163 7.5 16.2238 9.25002 16.4725 11.5H20V5.5C20 4.67157 19.3284 4 18.5 4H5.5ZM4 12.5H7.52746C7.77619 14.75 9.68372 16.5 12 16.5C14.3163 16.5 16.2238 14.75 16.4725 12.5H20V18.5C20 19.3284 19.3284 20 18.5 20H5.5C4.67157 20 4 19.3284 4 18.5V12.5ZM12 15.5C13.7632 15.5 15.2219 14.1961 15.4646 12.5H8.53544C8.77806 14.1961 10.2368 15.5 12 15.5ZM8.53544 11.5H15.4646C15.2219 9.80385 13.7632 8.5 12 8.5C10.2368 8.5 8.77806 9.80385 8.53544 11.5ZM18.5 5C18.2239 5 18 5.22386 18 5.5C18 5.77614 18.2239 6 18.5 6C18.7761 6 19 5.77614 19 5.5C19 5.22386 18.7761 5 18.5 5Z" fill="#8E8E8E"></path> <circle cx="12" cy="12" r="3.5" fill="#8E8E8E"></circle> </svg> 