<?xml version="1.0" encoding="UTF-8"?> <svg xmlns="http://www.w3.org/2000/svg" width="24" height="24" viewBox="0 0 24 24" fill="none"> <path d="M2.896 4.204C5.168 1.532 8.486 0 12 0C18.618 0 24 5.382 24 12C24 18.618 18.618 24 12 24C8.488 24 5.17 22.468 2.914 19.816C1.034 17.664 -1.07288e-06 14.888 -1.07288e-06 12C-1.07288e-06 9.11 1.036 6.334 2.896 4.204Z" fill="url(#paint0_diamond_166_2213)"></path> <path d="M13.805 15.8249C12.7671 15.4406 11.8333 14.8247 11.0766 14.0253C10.3198 13.2259 9.76051 12.2646 9.44242 11.2166C9.12432 10.1685 9.05602 9.06212 9.24285 7.98373C9.42968 6.90533 9.86658 5.88417 10.5194 5C9.39278 5.26574 8.34786 5.79619 7.47357 6.54619C6.59929 7.2962 5.92153 8.24357 5.49796 9.30769C5.0744 10.3718 4.91757 11.5212 5.04082 12.658C5.16407 13.7948 5.56376 14.8853 6.20587 15.8369C6.84797 16.7885 7.71349 17.5728 8.72877 18.1233C9.74405 18.6737 10.879 18.9739 12.0371 18.9984C13.1953 19.0228 14.3422 18.7708 15.3804 18.2636C16.4186 17.7565 17.3173 17.0094 18 16.0858C16.6068 16.4157 15.1452 16.3248 13.805 15.8249Z" fill="#13131A"></path> <defs> <radialGradient id="paint0_diamond_166_2213" cx="0" cy="0" r="1" gradientUnits="userSpaceOnUse" gradientTransform="translate(4.3 -0.632193) rotate(32.0239) scale(34.9128 92.5348)"> <stop stop-color="#F3E7E9"></stop> <stop offset="0.0001" stop-color="#F3E7E9"></stop> <stop offset="0.921875" stop-color="#E3EEFF"></stop> </radialGradient> </defs> </svg> 